2015007_C5_03_grf
version=1
nRows=27
nColumns=19
inDegrees=no
endheader
time	ground_force_1_vx	ground_force_1_vy	ground_force_1_vz	ground_force_1_px	ground_force_1_py	ground_force_1_pz	ground_force_1_mx	ground_force_1_my	ground_force_1_mz	ground_force_2_vx	ground_force_2_vy	ground_force_2_vz	ground_force_2_px	ground_force_2_py	ground_force_2_pz	ground_force_2_mx	ground_force_2_my	ground_force_2_mz
      0.69500000	      0.00000000	      0.00000000	      0.00000000	      0.00000000	      0.00000000	      0.00000000	      0.00000000	      0.00000000	      0.00000000	    -14.76105629	    356.78558052	     31.10070676	      0.82684930	      0.00000000	     -0.31550784	      0.00000000	     -1.35159944	      0.00000000
      0.69600000	      0.00000000	      0.00000000	      0.00000000	      0.00000000	      0.00000000	      0.00000000	      0.00000000	      0.00000000	      0.00000000	    -14.45590239	    353.57478261	     30.89257777	      0.82777580	      0.00000000	     -0.31570007	      0.00000000	     -1.34645182	      0.00000000
      0.69700000	      0.00000000	      0.00000000	      0.00000000	      0.00000000	      0.00000000	      0.00000000	      0.00000000	      0.00000000	      0.00000000	    -14.16222984	    350.48587620	     30.67720532	      0.82870881	      0.00000000	     -0.31589007	     -0.00000000	     -1.34108526	      0.00000000
      0.69800000	      0.00000000	      0.00000000	      0.00000000	      0.00000000	      0.00000000	      0.00000000	      0.00000000	      0.00000000	      0.00000000	    -13.87744024	    347.49442339	     30.45626581	      0.82964648	      0.00000000	     -0.31607817	      0.00000000	     -1.33557347	      0.00000000
      0.69900000	      0.00000000	      0.00000000	      0.00000000	      0.00000000	      0.00000000	      0.00000000	      0.00000000	      0.00000000	      0.00000000	    -13.60336924	    344.62456405	     30.22868484	      0.83058926	      0.00000000	     -0.31626371	      0.00000000	     -1.32991785	     -0.00000000
      0.70000000	      0.00000000	      0.00000000	      0.00000000	      0.00000000	      0.00000000	      0.00000000	      0.00000000	      0.00000000	      0.00000000	    -13.33756186	    341.85177088	     29.99607027	      0.83153553	      0.00000000	     -0.31644708	      0.00000000	     -1.32417605	      0.00000000
      0.70100000	      0.00000000	      0.00000000	      0.00000000	      0.00000000	      0.00000000	      0.00000000	      0.00000000	      0.00000000	      0.00000000	    -13.08168331	    339.19990063	     29.75754887	      0.83248541	      0.00000000	     -0.31662759	      0.00000000	     -1.31835908	      0.00000000
      0.70200000	      0.00000000	      0.00000000	      0.00000000	      0.00000000	      0.00000000	      0.00000000	      0.00000000	      0.00000000	      0.00000000	    -12.83342484	    336.64432168	     29.51462865	      0.83343758	      0.00000000	     -0.31680569	     -0.00000000	     -1.31250633	      0.00000000
      0.70300000	      0.00000000	      0.00000000	      0.00000000	      0.00000000	      0.00000000	      0.00000000	      0.00000000	      0.00000000	      0.00000000	    -12.59428402	    334.20850337	     29.26664054	      0.83439183	      0.00000000	     -0.31698068	     -0.00000000	     -1.30663702	      0.00000000
      0.70400000	      0.00000000	      0.00000000	      0.00000000	      0.00000000	      0.00000000	      0.00000000	      0.00000000	      0.00000000	      0.00000000	    -12.36210670	    331.86790347	     29.01495099	      0.83534714	      0.00000000	     -0.31715309	      0.00000000	     -1.30077651	      0.00000000
      0.70500000	      0.00000000	      0.00000000	      0.00000000	      0.00000000	      0.00000000	      0.00000000	      0.00000000	      0.00000000	      0.00000000	    -12.13820744	    329.64548469	     28.75910550	      0.83630302	      0.00000000	     -0.31732221	      0.00000000	     -1.29495327	      0.00000000
      0.70600000	      0.00000000	      0.00000000	      0.00000000	      0.00000000	      0.00000000	      0.00000000	      0.00000000	      0.00000000	      0.00000000	    -11.92058157	    327.51685381	     28.50032449	      0.83725874	      0.00000000	     -0.31748866	      0.00000000	     -1.28917826	      0.00000000
      0.70700000	      0.00000000	      0.00000000	      0.00000000	      0.00000000	      0.00000000	      0.00000000	      0.00000000	      0.00000000	      0.00000000	    -11.71036158	    325.50437748	     28.23837548	      0.83821350	      0.00000000	     -0.31765174	      0.00000000	     -1.28348353	      0.00000000
      0.70800000	      0.00000000	      0.00000000	      0.00000000	      0.00000000	      0.00000000	      0.00000000	      0.00000000	      0.00000000	      0.00000000	    -11.50571369	    323.58396053	     27.97431648	      0.83916687	      0.00000000	     -0.31781211	     -0.00000000	     -1.27786649	     -0.00000000
      0.70900000	      0.00000000	      0.00000000	      0.00000000	      0.00000000	      0.00000000	      0.00000000	      0.00000000	      0.00000000	      0.00000000	    -11.30759157	    321.77746296	     27.70815641	      0.84011770	      0.00000000	     -0.31796907	      0.00000000	     -1.27236448	      0.00000000
      0.71000000	      0.00000000	      0.00000000	      0.00000000	      0.00000000	      0.00000000	      0.00000000	      0.00000000	      0.00000000	      0.00000000	    -11.11433841	    320.06114721	     27.44076848	      0.84106585	      0.00000000	     -0.31812331	      0.00000000	     -1.26696658	      0.00000000
      0.71100000	      0.00000000	      0.00000000	      0.00000000	      0.00000000	      0.00000000	      0.00000000	      0.00000000	      0.00000000	      0.00000000	    -10.92673140	    318.45638156	     27.17242837	      0.84200985	      0.00000000	     -0.31827415	      0.00000000	     -1.26171195	      0.00000000
      0.71200000	      0.00000000	      0.00000000	      0.00000000	      0.00000000	      0.00000000	      0.00000000	      0.00000000	      0.00000000	      0.00000000	    -10.74329484	    316.93986058	     26.90380216	      0.84294989	      0.00000000	     -0.31842232	      0.00000000	     -1.25658162	      0.00000000
      0.71300000	      0.00000000	      0.00000000	      0.00000000	      0.00000000	      0.00000000	      0.00000000	      0.00000000	      0.00000000	      0.00000000	    -10.56464203	    315.53237140	     26.63543373	      0.84388421	      0.00000000	     -0.31856719	      0.00000000	     -1.25161769	      0.00000000
      0.71400000	      0.00000000	      0.00000000	      0.00000000	      0.00000000	      0.00000000	      0.00000000	      0.00000000	      0.00000000	      0.00000000	    -10.38946956	    314.21110034	     26.36776865	      0.84481333	      0.00000000	     -0.31870949	      0.00000000	     -1.24679250	      0.00000000
      0.71500000	      0.00000000	      0.00000000	      0.00000000	      0.00000000	      0.00000000	      0.00000000	      0.00000000	      0.00000000	      0.00000000	    -10.21821052	    312.99629807	     26.10161752	      0.84573520	      0.00000000	     -0.31884863	      0.00000000	     -1.24214184	      0.00000000
      0.71600000	      0.00000000	      0.00000000	      0.00000000	      0.00000000	      0.00000000	      0.00000000	      0.00000000	      0.00000000	      0.00000000	    -10.04972775	    311.86559796	     25.83718896	      0.84665068	      0.00000000	     -0.31898532	      0.00000000	     -1.23762772	      0.00000000
      0.71700000	      0.00000000	      0.00000000	      0.00000000	      0.00000000	      0.00000000	      0.00000000	      0.00000000	      0.00000000	      0.00000000	     -9.88426851	    310.83871424	     25.57555735	      0.84755747	      0.00000000	     -0.31911904	      0.00000000	     -1.23327694	      0.00000000
      0.71800000	      0.00000000	      0.00000000	      0.00000000	      0.00000000	      0.00000000	      0.00000000	      0.00000000	      0.00000000	      0.00000000	     -9.72087588	    309.89375710	     25.31667054	      0.84845676	      0.00000000	     -0.31925045	      0.00000000	     -1.22904912	      0.00000000
      0.71900000	      0.00000000	      0.00000000	      0.00000000	      0.00000000	      0.00000000	      0.00000000	      0.00000000	      0.00000000	      0.00000000	     -9.55962855	    309.04985964	     25.06183982	      0.84934605	      0.00000000	     -0.31937910	      0.00000000	     -1.22496075	      0.00000000
      0.72000000	      0.00000000	      0.00000000	      0.00000000	      0.00000000	      0.00000000	      0.00000000	      0.00000000	      0.00000000	      0.00000000	     -9.39975120	    308.28574300	     24.81075823	      0.85022683	      0.00000000	     -0.31950558	      0.00000000	     -1.22096823	      0.00000000
      0.72100000	      0.00000000	      0.00000000	      0.00000000	      0.00000000	      0.00000000	      0.00000000	      0.00000000	      0.00000000	      0.00000000	     -9.24115255	    307.62000382	     24.56497997	      0.85109638	      0.00000000	     -0.31962947	      0.00000000	     -1.21706902	      0.00000000
